#!OML:ASF E:\Style4\Style4.ASF
:FULLY-SPECIFIED
:DEGREES
1499
root 0.128308 18.1308 -0.0824376 4.4547 -6.53925 2.47035
lowerback 2.52916 2.10456 -0.486028
upperback -3.72406 2.80133 0.226249
thorax -5.3028 1.41395 0.306647
lowerneck 3.45647 -2.77445 -5.73486
upperneck 1.71107 -3.9282 5.10046
head 0.171969 -2.01161 2.6373
rclavicle -3.93594e-014 -3.57812e-015
rhumerus -87.8099 50.7925 -120.384
rradius 84.6707
rwrist -1.61263
rhand -2.79255 30.9526
rfingers 7.12502
rthumb 22.913 2.29404
lclavicle -3.93594e-014 -3.57812e-015
lhumerus -27.38 22.2006 19.7587
lradius 110.436
lwrist -14.4302
lhand -11.5869 35.0642
lfingers 7.12502
lthumb 14.455 64.5408
rfemur -7.31078 9.64097 15.1446
rtibia 19.2985
rfoot -14.8205 -14.2929
rtoes -14.426
lfemur -0.445263 -3.07933 -22.7307
ltibia 10.5047
lfoot -15.5605 15.7575
ltoes -14.4286
1500
root 0.10544 18.1278 -0.0841481 4.45034 -6.40061 2.26939
lowerback 2.55176 2.11842 -0.512862
upperback -3.72627 2.81183 0.0855998
thorax -5.31219 1.41712 0.174595
lowerneck 3.42002 -2.8236 -5.82714
upperneck 1.79793 -3.99925 5.29149
head 0.216052 -2.04805 2.71707
rclavicle -3.79803e-014 -1.78906e-014
rhumerus -87.8153 50.7511 -120.602
rradius 84.5418
rwrist -1.45659
rhand -3.10772 30.8007
rfingers 7.12502
rthumb 22.6106 2.10501
lclavicle -3.79803e-014 -1.78906e-014
lhumerus -27.384 22.2132 19.655
lradius 110.468
lwrist -14.3956
lhand -11.5756 35.0337
lfingers 7.12502
lthumb 14.4659 64.5095
rfemur -7.22693 9.43844 15.4578
rtibia 19.2594
rfoot -14.7859 -14.2041
rtoes -14.5567
lfemur -0.615455 -3.26011 -22.4331
ltibia 10.8745
lfoot -15.7643 15.8024
ltoes -14.5182
1501
root 0.0813918 18.1248 -0.0828831 4.45291 -6.2572 2.17884
lowerback 2.50866 2.12163 -0.67459
upperback -3.72871 2.80105 -0.0649369
thorax -5.29031 1.41498 0.111729
lowerneck 3.50018 -2.81191 -5.79469
upperneck 1.79182 -3.98664 5.32067
head 0.199442 -2.04266 2.72248
rclavicle 1.44864e-014 -8.74653e-015
rhumerus -87.8518 50.7503 -120.862
rradius 84.3971
rwrist -1.43255
rhand -3.28019 30.8353
rfingers 7.12502
rthumb 22.445 2.11948
lclavicle 1.44864e-014 -8.74653e-015
lhumerus -27.3563 22.27 19.6238
lradius 110.468
lwrist -14.2864
lhand -11.5867 35.1129
lfingers 7.12502
lthumb 14.4552 64.5895
rfemur -7.126 9.1754 15.6473
rtibia 19.1694
rfoot -14.8084 -14.0655
rtoes -14.56
lfemur -0.876971 -3.33274 -22.2381
ltibia 11.3847
lfoot -16.0946 15.6717
ltoes -14.0295
1502
root 0.0552666 18.1228 -0.0832059 4.42553 -6.1369 2.07534
lowerback 2.49512 2.14197 -0.843121
upperback -3.6988 2.81419 -0.187382
thorax -5.25351 1.42545 0.0795807
lowerneck 3.6142 -2.7567 -5.73266
upperneck 1.6855 -3.91294 5.2867
head 0.139636 -2.00653 2.70273
rclavicle -1.28962e-014 -5.96354e-015
rhumerus -87.7891 50.7232 -120.968
rradius 84.2796
rwrist -1.29711
rhand -3.40458 30.9058
rfingers 7.12502
rthumb 22.3256 2.17568
lclavicle -1.28962e-014 -5.96354e-015
lhumerus -27.3608 22.3148 19.6485
lradius 110.503
lwrist -14.2164
lhand -11.5429 35.2255
lfingers 7.12502
lthumb 14.4974 64.699
rfemur -7.00939 9.01421 15.8712
rtibia 19.0786
rfoot -14.7938 -14.0065
rtoes -14.3748
lfemur -1.11923 -3.35368 -22.0259
ltibia 11.9085
lfoot -16.2874 15.5457
ltoes -13.6208
1503
root 0.0314031 18.1207 -0.0839468 4.37091 -6.00421 1.8866
lowerback 2.54357 2.17266 -0.888526
upperback -3.67865 2.84751 -0.295139
thorax -5.25714 1.44134 -0.0102827
lowerneck 3.82701 -2.74795 -5.68206
upperneck 1.55468 -3.90606 5.3055
head 0.0604546 -2.00529 2.70528
rclavicle 5.0454e-014 4.37326e-015
rhumerus -87.7637 50.6684 -121.062
rradius 84.2084
rwrist -1.07635
rhand -3.46721 30.9107
rfingers 7.12502
rthumb 22.2655 2.17332
lclavicle 5.0454e-014 4.37326e-015
lhumerus -27.3758 22.3569 19.655
lradius 110.545
lwrist -14.1804
lhand -11.4851 35.1477
lfingers 7.12502
lthumb 14.5532 64.6172
rfemur -6.87047 8.86703 16.1842
rtibia 19.0263
rfoot -14.921 -13.8965
rtoes -13.9027
lfemur -1.29769 -3.44955 -21.7405
ltibia 12.3863
lfoot -16.3671 15.5137
ltoes -13.8737
1504
root 0.00888837 18.117 -0.0843446 4.30134 -5.88941 1.74857
lowerback 2.59935 2.18935 -0.98815
upperback -3.66789 2.85848 -0.415748
thorax -5.27666 1.44797 -0.0822271
lowerneck 3.95937 -2.76651 -5.72876
upperneck 1.55179 -3.93962 5.40008
head 0.041574 -2.02446 2.74864
rclavicle -4.18939e-014 -1.56046e-014
rhumerus -87.7737 50.6414 -121.245
rradius 84.0939
rwrist -0.914416
rhand -3.55044 30.8535
rfingers 7.12502
rthumb 22.1856 2.10667
lclavicle -4.18939e-014 -1.56046e-014
lhumerus -27.4444 22.4169 19.5998
lradius 110.604
lwrist -14.1773
lhand -11.3089 35.0683
lfingers 7.12502
lthumb 14.7229 64.5255
rfemur -6.73841 8.73507 16.4293
rtibia 19.0081
rfoot -15.046 -13.7754
rtoes -13.5962
lfemur -1.43987 -3.60842 -21.5241
ltibia 12.8265
lfoot -16.4846 15.5796
ltoes -14.2923
1505
root -0.0154403 18.1119 -0.0829288 4.26556 -5.83822 1.66265
lowerback 2.57804 2.21334 -1.17889
upperback -3.6465 2.87525 -0.541902
thorax -5.24549 1.46097 -0.105974
lowerneck 4.05493 -2.77775 -5.78316
upperneck 1.49684 -3.96028 5.46818
head 0.0114054 -2.03655 2.78442
rclavicle 1.33248e-015 -1.20265e-014
rhumerus -87.7944 50.6302 -121.453
rradius 83.9981
rwrist -0.787136
rhand -3.67998 30.6458
rfingers 7.12502
rthumb 22.0612 1.88421
lclavicle 1.33248e-015 -1.20265e-014
lhumerus -27.54 22.473 19.4933
lradius 110.624
lwrist -14.1107
lhand -11.0631 34.7807
lfingers 7.12502
lthumb 14.9597 64.2204
rfemur -6.65983 8.61589 16.6112
rtibia 18.9809
rfoot -14.9998 -13.7299
rtoes -13.6423
lfemur -1.61318 -3.68974 -21.3602
ltibia 13.2714
lfoot -16.7054 15.5846
ltoes -14.368
